<?xml version="1.0" encoding="utf-8"?>
<!-- Generator: Adobe Illustrator 13.0.0, SVG Export Plug-In . SVG Version: 6.00 Build 14948)  -->
<!DOCTYPE svg PUBLIC "-//W3C//DTD SVG 1.1//EN" "http://www.w3.org/Graphics/SVG/1.1/DTD/svg11.dtd">
<svg version="1.1" id="Layer_1" xmlns="http://www.w3.org/2000/svg" xmlns:xlink="http://www.w3.org/1999/xlink" x="0px" y="0px"
	 width="700px" height="700px" viewBox="46 -44 700 700" enable-background="new 46 -44 700 700" xml:space="preserve">
<g>
	<defs>
		<rect id="SVGID_1_" x="46" y="-44" width="700" height="700"/>
	</defs>
	<clipPath id="SVGID_2_">
		<use xlink:href="#SVGID_1_"  overflow="visible"/>
	</clipPath>
	<g clip-path="url(#SVGID_2_)">
		<path fill-opacity="0" d="M46-44h700v700H46V-44z"/>
		<path fill-opacity="0" d="M419.951,22.578H100.166V418.2h319.786V22.578z"/>
		<path d="M291.177,319.118c0-6.522-3.423-11.749-10.269-15.677c-6.846-3.97-19.85-8.082-39.011-12.335
			c-19.12-4.253-34.919-9.843-47.396-16.771c-12.437-6.927-21.916-15.312-28.438-25.156c-6.522-9.884-9.783-21.207-9.783-33.967
			c0-22.645,9.337-41.299,28.013-55.963c18.675-14.665,43.142-21.996,73.402-21.996c32.489,0,58.597,7.373,78.325,22.118
			c19.768,14.746,29.652,34.109,29.652,58.09h-76.988c0-19.728-10.411-29.592-31.233-29.592c-8.061,0-14.826,2.249-20.295,6.745
			c-5.469,4.456-8.203,10.026-8.203,16.71c0,6.846,3.342,12.396,10.026,16.649c6.684,4.253,17.357,7.757,32.022,10.512
			c14.665,2.714,27.546,5.976,38.646,9.783c37.066,12.76,55.599,35.608,55.599,68.542c0,22.483-10.006,40.794-30.017,54.931
			c-19.972,14.139-45.816,21.207-77.535,21.207c-21.146,0-40.002-3.788-56.571-11.363c-16.527-7.615-29.43-17.945-38.706-30.989
			c-9.277-13.085-13.915-26.838-13.915-41.259h71.823c0.284,11.383,4.071,19.708,11.363,24.974
			c7.292,5.226,16.629,7.839,28.012,7.839c10.492,0,18.351-2.126,23.576-6.38C288.544,331.514,291.177,325.964,291.177,319.118z"/>
		<path fill-opacity="0" d="M341.179,100.833l319.906-1.2l30.743,398.321l-319.906,1.199L341.179,100.833z"/>
		<path d="M427.018,237.279l3.791,23.137c12.598-17.912,30.684-26.912,54.26-27c24.913-0.093,42.509,9.745,52.787,29.516
			c11.84-19.853,30.397-29.828,55.677-29.922c39.982-0.15,62.386,23.95,67.212,72.3l9.902,128.298l-61.614,0.23l-9.607-124.471
			c-0.778-10.083-3.047-17.427-6.806-22.031c-3.76-4.604-10.136-6.889-19.128-6.855c-12.153,0.045-20.79,5.486-25.91,16.322
			l0.38,2.55l10.395,134.676l-61.615,0.23l-9.578-124.104c-0.797-10.328-3.015-17.793-6.652-22.398
			c-3.637-4.604-10.074-6.889-19.311-6.854c-11.787,0.044-20.363,5.484-25.727,16.32l10.592,137.227l-61.432,0.23l-15.219-197.184
			L427.018,237.279z"/>
		<path fill-opacity="0" d="M673.592,447.908l-518.969,1.349"/>
		<path fill="none" stroke="#000000" stroke-linejoin="round" stroke-miterlimit="10" d="M673.592,447.908l-518.969,1.349"/>
	</g>
</g>
</svg>
