<?xml version="1.0" encoding="utf-8"?>
<!-- Generator: Adobe Illustrator 13.0.0, SVG Export Plug-In . SVG Version: 6.00 Build 14948)  -->
<!DOCTYPE svg PUBLIC "-//W3C//DTD SVG 1.1//EN" "http://www.w3.org/Graphics/SVG/1.1/DTD/svg11.dtd">
<svg version="1.1" id="Layer_1" xmlns="http://www.w3.org/2000/svg" xmlns:xlink="http://www.w3.org/1999/xlink" x="0px" y="0px"
	 width="239.5px" height="60px" viewBox="0 0 239.5 60" enable-background="new 0 0 239.5 60" xml:space="preserve">
<path fill="#1B1464" d="M26.244,6.682V17.33c-3.966-3.25-7.125-4.876-9.479-4.876c-1.341,0-2.407,0.411-3.198,1.228
	c-0.791,0.82-1.187,1.906-1.187,3.258c0,1.042,0.284,2.027,0.855,2.964c0.569,0.937,1.96,2.147,4.171,3.627
	c2.211,1.484,3.979,2.86,5.307,4.134c1.326,1.277,2.472,3.069,3.435,5.385c0.963,2.313,1.443,5.238,1.443,8.777
	c0,5.045-1.053,9.063-3.156,12.057c-2.103,2.99-4.874,4.484-8.311,4.484c-3.709,0-7.304-1.757-10.785-5.267v-11.74
	c1.998,2.443,3.767,4.224,5.307,5.341c1.541,1.118,3.174,1.678,4.899,1.678c2.925,0,4.387-1.678,4.387-5.026
	c0-1.146-0.292-2.224-0.879-3.236c-0.584-1.012-1.992-2.252-4.225-3.705c-2.233-1.455-4.002-2.805-5.307-4.057
	c-1.305-1.248-2.431-3.028-3.379-5.343c-0.948-2.316-1.423-5.281-1.423-8.897c0-4.684,1.034-8.459,3.103-11.336
	c2.067-2.875,4.835-4.312,8.302-4.312C19.318,2.466,22.692,3.872,26.244,6.682z"/>
<path fill="#1B1464" d="M60.284,41.048v11.897c-3.738,3.613-7.652,5.423-11.747,5.423c-5.305,0-9.53-2.677-12.677-8.019
	c-3.145-5.346-4.717-11.934-4.717-19.758c0-7.827,1.657-14.474,4.974-19.934c3.316-5.461,7.65-8.192,12.998-8.192
	c4.264,0,7.873,1.6,10.826,4.797v12.135c-3.623-3.721-7.054-5.58-10.291-5.58c-3.182,0-5.781,1.553-7.799,4.663
	c-2.019,3.107-3.026,7.066-3.026,11.877c0,4.835,0.993,8.828,2.983,11.975c1.99,3.147,4.539,4.719,7.649,4.719
	c1.54,0,3.024-0.366,4.449-1.11C55.334,45.202,57.459,43.566,60.284,41.048z"/>
<path fill="#1B1464" d="M82.063,2.466c5.093,0,9.214,2.805,12.367,8.408c3.151,5.603,4.728,12.125,4.728,19.561
	c0,7.542-1.598,14.086-4.792,19.625c-3.195,5.539-7.296,8.309-12.303,8.309c-5.063,0-9.186-2.758-12.366-8.273
	c-3.182-5.51-4.771-12.065-4.771-19.66c0-7.461,1.58-13.99,4.738-19.581C72.824,5.262,76.957,2.466,82.063,2.466z M82.063,47.052
	c2.825,0,5.101-1.522,6.825-4.577c1.727-3.062,2.589-7.07,2.589-12.04c0-4.992-0.862-9.009-2.589-12.052
	c-1.725-3.043-4-4.564-6.825-4.564c-2.837,0-5.124,1.521-6.856,4.564c-1.734,3.043-2.6,7.061-2.6,12.052
	c0,4.969,0.865,8.979,2.6,12.04C76.939,45.527,79.227,47.052,82.063,47.052z"/>
<path fill="#1B1464" d="M128.683,3.17v9.984h-10.824v44.511h-7.446V13.154H99.587V3.17H128.683z"/>
<path fill="#1B1464" d="M160.197,3.17v9.984h-10.824v44.511h-7.447V13.154h-10.825V3.17H160.197z"/>
<path fill="#1B1464" d="M178.986,23.377l9.606-20.207h6.473v54.495h-7.446V23.647l-8.075,17.085h-1.118l-8.073-17.085v34.018h-7.443
	V3.17h6.463L178.986,23.377z"/>
<path fill="#1B1464" d="M217.529,2.466c5.092,0,9.214,2.805,12.365,8.408s4.729,12.125,4.729,19.561
	c0,7.542-1.602,14.086-4.794,19.625c-3.195,5.539-7.297,8.309-12.302,8.309c-5.063,0-9.187-2.758-12.365-8.273
	c-3.18-5.51-4.773-12.065-4.773-19.66c0-7.461,1.582-13.99,4.741-19.581C208.291,5.262,212.421,2.466,217.529,2.466z
	 M217.529,47.052c2.82,0,5.097-1.522,6.824-4.577c1.726-3.062,2.59-7.07,2.59-12.04c0-4.992-0.864-9.009-2.59-12.052
	c-1.729-3.043-4.004-4.564-6.824-4.564c-2.84,0-5.125,1.521-6.86,4.564c-1.729,3.043-2.597,7.061-2.597,12.052
	c0,4.969,0.867,8.979,2.597,12.04C212.404,45.527,214.689,47.052,217.529,47.052z"/>
</svg>
