<svg version="1.1" viewBox="0.0 0.0 615.01312335958 100.0" fill="none" stroke="none" stroke-linecap="square" stroke-miterlimit="10" xmlns:xlink="http://www.w3.org/1999/xlink" xmlns="http://www.w3.org/2000/svg"><clipPath id="p.0"><path d="m0 0l615.0131 0l0 100.0l-615.0131 0l0 -100.0z" clip-rule="nonzero"/></clipPath><g clip-path="url(#p.0)"><path fill="#000000" fill-opacity="0.0" d="m0 0l615.0131 0l0 100.0l-615.0131 0z" fill-rule="evenodd"/><g filter="url(#shadowFilter-p.1)"><use xlink:href="#p.1" transform="matrix(1.0 0.0 0.0 1.0 -1.0751036796669948 2.8007412006848753)"/></g><defs><filter id="shadowFilter-p.1" filterUnits="userSpaceOnUse"><feGaussianBlur in="SourceAlpha" stdDeviation="1.0" result="blur"/><feComponentTransfer in="blur" color-interpolation-filters="sRGB"><feFuncR type="linear" slope="0" intercept="0.0"/><feFuncG type="linear" slope="0" intercept="0.0"/><feFuncB type="linear" slope="0" intercept="0.0"/><feFuncA type="linear" slope="0.17" intercept="0"/></feComponentTransfer></filter></defs><g id="p.1"><path fill="#000000" fill-opacity="0.0" d="m2.123307 -9.31839l776.8819 0l0 33.322834l-776.8819 0z" fill-rule="evenodd"/><path fill="#666666" d="m43.48268 65.70098q0 -3.609375 -2.5625 -5.625q-2.546875 -2.015625 -8.96875 -4.171875q-6.421875 -2.15625 -10.5 -4.171875q-13.265624 -6.515625 -13.265624 -17.90625q0 -5.671875 3.296875 -10.0q3.3125 -4.34375 9.359374 -6.75q6.046875 -2.421875 13.59375 -2.421875q7.359375 0 13.1875 2.625q5.84375 2.625 9.078125 7.484375q3.234375 4.84375 3.234375 11.078125l-16.40625 0q0 -4.171875 -2.5625 -6.46875q-2.546875 -2.296875 -6.90625 -2.296875q-4.40625 0 -6.96875 1.953125q-2.546875 1.9375 -2.546875 4.9375q0 2.625 2.8125 4.765625q2.8125 2.125 9.890625 4.40625q7.078125 2.265625 11.625 4.890625q11.0625 6.375 11.0625 17.578125q0 8.953125 -6.75 14.0625q-6.75 5.109375 -18.515625 5.109375q-8.296875 0 -15.03125 -2.96875q-6.718749 -2.984375 -10.124999 -8.15625q-3.390625 -5.1875 -3.390625 -11.9375l16.5 0q0 5.484375 2.828125 8.09375q2.84375 2.59375 9.21875 2.59375q4.078125 0 6.4375 -1.75q2.375 -1.765625 2.375 -4.953125zm45.609375 6.890625q3.328125 0 5.15625 -1.796875q1.828125 -1.8125 1.78125 -5.046875l14.8125 0q0 8.34375 -5.984375 13.6875q-5.96875 5.34375 -15.390625 5.34375q-11.0625 0 -17.4375 -6.9375q-6.375 -6.9375 -6.375 -19.21875l0 -0.65625q0 -7.6875 2.828125 -13.5625q2.84375 -5.890625 8.1875 -9.046875q5.34375 -3.171875 12.65625 -3.171875q9.890625 0 15.703125 5.484375q5.8125 5.484375 5.8125 14.859375l-14.8125 0q0 -3.9375 -1.921875 -6.046875q-1.921875 -2.109375 -5.15625 -2.109375q-6.140625 0 -7.171875 7.828125q-0.328125 2.484375 -0.328125 6.84375q0 7.640625 1.828125 10.59375q1.828125 2.953125 5.8125 2.953125zm26.4375 -14.578125q0 -7.59375 2.953125 -13.515625q2.953125 -5.9375 8.484375 -9.125q5.53125 -3.1875 12.984375 -3.1875q11.390625 0 17.953125 7.0625q6.5625 7.046875 6.5625 19.1875l0 0.5625q0 11.859375 -6.59375 18.828125q-6.578125 6.953125 -17.828125 6.953125q-10.828125 0 -17.390625 -6.484375q-6.5625 -6.5 -7.078125 -17.609375l-0.046875 -2.671875zm15.796875 0.984375q0 7.03125 2.203125 10.3125q2.203125 3.28125 6.515625 3.28125q8.4375 0 8.625 -12.984375l0 -1.59375q0 -13.640625 -8.71875 -13.640625q-7.921875 0 -8.578125 11.765625l-0.046875 2.859375zm58.5 -38.484375l0 12.609375l8.34375 0l0 10.96875l-8.34375 0l0 23.203125q0 2.859375 1.03125 3.984375q1.03125 1.125 4.078125 1.125q2.34375 0 3.9375 -0.28125l0 11.296875q-4.265625 1.359375 -8.90625 1.359375q-8.15625 0 -12.046875 -3.84375q-3.890625 -3.84375 -3.890625 -11.671875l0 -25.171875l-6.46875 0l0 -10.96875l6.46875 0l0 -12.609375l15.796875 0zm32.953125 0l0 12.609375l8.34375 0l0 10.96875l-8.34375 0l0 23.203125q0 2.859375 1.03125 3.984375q1.03125 1.125 4.078125 1.125q2.34375 0 3.9375 -0.28125l0 11.296875q-4.265625 1.359375 -8.90625 1.359375q-8.15625 0 -12.046875 -3.84375q-3.890625 -3.84375 -3.890625 -11.671875l0 -25.171875l-6.46875 0l0 -10.96875l6.46875 0l0 -12.609375l15.796875 0zm60.79689 -4.921875l15.234375 47.484375l15.1875 -47.484375l21.65625 0l0 68.25l-16.5 0l0 -15.9375l1.59375 -32.625l-16.5 48.5625l-10.875 0l-16.546875 -48.609375l1.59375 32.671875l0 15.9375l-16.453125 0l0 -68.25l21.609375 0zm59.8125 42.421875q0 -7.59375 2.953125 -13.515625q2.953125 -5.9375 8.484375 -9.125q5.53125 -3.1875 12.984375 -3.1875q11.390625 0 17.953125 7.0625q6.5625 7.046875 6.5625 19.1875l0 0.5625q0 11.859375 -6.59375 18.828125q-6.578125 6.953125 -17.828125 6.953125q-10.828125 0 -17.390625 -6.484375q-6.5625 -6.5 -7.078125 -17.609375l-0.046875 -2.671875zm15.796875 0.984375q0 7.03125 2.203125 10.3125q2.203125 3.28125 6.515625 3.28125q8.4375 0 8.625 -12.984375l0 -1.59375q0 -13.640625 -8.71875 -13.640625q-7.921875 0 -8.578125 11.765625l-0.046875 2.859375zm70.78125 -11.578125l-5.203125 -0.375q-7.453125 0 -9.5625 4.6875l0 32.109375l-15.796875 0l0 -50.71875l14.8125 0l0.515625 6.515625q3.984375 -7.453125 11.109375 -7.453125q2.53125 0 4.40625 0.5625l-0.28125 14.671875zm32.859375 36.421875q-0.84375 -1.546875 -1.5 -4.546875q-4.359375 5.484375 -12.1875 5.484375q-7.171875 0 -12.1875 -4.328125q-5.015625 -4.34375 -5.015625 -10.90625q0 -8.25 6.09375 -12.46875q6.09375 -4.21875 17.71875 -4.21875l4.875 0l0 -2.671875q0 -6.984375 -6.046875 -6.984375q-5.625 0 -5.625 5.53125l-15.796875 0q0 -7.359375 6.25 -11.953125q6.265625 -4.59375 15.96875 -4.59375q9.703125 0 15.328125 4.734375q5.625 4.734375 5.765625 12.984375l0 22.453125q0.09375 6.984375 2.15625 10.6875l0 0.796875l-15.796875 0zm-9.890625 -10.3125q2.953125 0 4.890625 -1.265625q1.953125 -1.265625 2.796875 -2.859375l0 -8.109375l-4.59375 0q-8.25 0 -8.25 7.40625q0 2.15625 1.453125 3.5q1.453125 1.328125 3.703125 1.328125zm48.9375 10.3125l-15.84375 0l0 -72.0l15.84375 0l0 72.0zm34.265594 0.9375q-11.671875 0 -18.890625 -6.953125q-7.2187195 -6.96875 -7.2187195 -18.125l0 -1.3125q0 -7.78125 2.8749695 -13.734375q2.890625 -5.953125 8.421875 -9.203125q5.53125 -3.265625 13.125 -3.265625q10.6875 0 16.875 6.640625q6.1875 6.625 6.1875 18.484375l0 6.140625l-31.40625 0q0.84375 4.265625 3.703125 6.703125q2.859375 2.4375 7.40625 2.4375q7.5 0 11.71875 -5.25l7.21875 8.53125q-2.953125 4.078125 -8.375 6.5q-5.40625 2.40625 -11.640625 2.40625zm-1.78125 -40.40625q-6.9375 0 -8.25 9.1875l15.9375 0l0 -1.21875q0.09375 -3.796875 -1.921875 -5.875q-2.015625 -2.09375 -5.765625 -2.09375zm56.0625 25.21875q0 -2.015625 -2.109375 -3.234375q-2.109375 -1.21875 -8.015625 -2.53125q-5.90625 -1.3125 -9.75 -3.4375q-3.84375 -2.140625 -5.859375 -5.1875q-2.015625 -3.046875 -2.015625 -6.984375q0 -6.984375 5.765625 -11.5q5.765625 -4.53125 15.09375 -4.53125q10.03125 0 16.125 4.546875q6.09375 4.546875 6.09375 11.953125l-15.84375 0q0 -6.09375 -6.421875 -6.09375q-2.484375 0 -4.171875 1.390625q-1.6875 1.375 -1.6875 3.4375q0 2.109375 2.0625 3.421875q2.0625 1.3125 6.578125 2.15625q4.53125 0.84375 7.953125 2.015625q11.4375 3.9375 11.4375 14.109375q0 6.9375 -6.171875 11.296875q-6.15625 4.359375 -15.953125 4.359375q-6.515625 0 -11.625 -2.34375q-5.109375 -2.34375 -7.96875 -6.375q-2.859375 -4.03125 -2.859375 -8.484375l14.765625 0q0.09375 3.515625 2.34375 5.140625q2.25 1.609375 5.765625 1.609375q3.234375 0 4.84375 -1.3125q1.625 -1.3125 1.625 -3.421875z" fill-rule="nonzero"/></g></g></svg>