<svg version="1.1" viewBox="0.0 0.0 235.0 35.0" fill="none" stroke="none" stroke-linecap="square" stroke-miterlimit="10" xmlns:xlink="http://www.w3.org/1999/xlink" xmlns="http://www.w3.org/2000/svg"><clipPath id="p.0"><path d="m0 0l235.0 0l0 35.0l-235.0 0l0 -35.0z" clip-rule="nonzero"/></clipPath><g clip-path="url(#p.0)"><path fill="#000000" fill-opacity="0.0" d="m0 0l235.0 0l0 35.0l-235.0 0z" fill-rule="evenodd"/><g filter="url(#shadowFilter-p.1)"><use xlink:href="#p.1" transform="matrix(1.0 0.0 0.0 1.0 -0.4999997196547941 -0.866024948480561)"/></g><defs><filter id="shadowFilter-p.1" filterUnits="userSpaceOnUse"><feGaussianBlur in="SourceAlpha" stdDeviation="0.5" result="blur"/><feComponentTransfer in="blur" color-interpolation-filters="sRGB"><feFuncR type="linear" slope="0" intercept="0.0"/><feFuncG type="linear" slope="0" intercept="0.0"/><feFuncB type="linear" slope="0" intercept="0.0"/><feFuncA type="linear" slope="0.92" intercept="0"/></feComponentTransfer></filter></defs><g id="p.1"><path fill="#000000" fill-opacity="0.0" d="m2.1246226 -5.435302l288.47244 0l0 2.456693l-288.47244 0z" fill-rule="evenodd"/><path fill="#666666" d="m18.265247 23.32782q0 -1.359375 -0.96875 -2.109375q-0.953125 -0.765625 -3.359375 -1.5625q-2.40625 -0.8125 -3.9375 -1.578125q-4.96875 -2.437499 -4.96875 -6.703124q0 -2.140625 1.234375 -3.765625q1.234375 -1.625 3.5 -2.53125q2.265625 -0.90625 5.109375 -0.90625q2.75 0 4.9375 0.984375q2.1875 0.984375 3.40625 2.8125q1.21875 1.8125 1.21875 4.15625l-6.15625 0q0 -1.5625 -0.96875 -2.421875q-0.953125 -0.859375 -2.578125 -0.859375q-1.65625 0 -2.625 0.734375q-0.953125 0.71875 -0.953125 1.84375q0 0.984375 1.046875 1.78125q1.0625 0.796875 3.71875 1.65625q2.65625 0.84375 4.359375 1.828124q4.15625 2.390625 4.15625 6.59375q0 3.359375 -2.53125 5.28125q-2.53125 1.921875 -6.953125 1.921875q-3.109375 0 -5.640625 -1.109375q-2.515625 -1.125 -3.796875 -3.0625q-1.265625 -1.953125 -1.265625 -4.484375l6.1875 0q0 2.0625 1.0625 3.03125q1.0625 0.96875 3.453125 0.96875q1.53125 0 2.421875 -0.65625q0.890625 -0.65625 0.890625 -1.84375zm17.097656 2.578125q1.25 0 1.9375 -0.671875q0.6875 -0.6875 0.671875 -1.890625l5.546875 0q0 3.125 -2.25 5.140625q-2.234375 2.0 -5.765625 2.0q-4.140625 0 -6.53125 -2.609375q-2.390625 -2.609375 -2.390625 -7.203125l0 -0.25q0 -2.890625 1.0625 -5.093749q1.0625 -2.203125 3.0625 -3.390625q2.0 -1.1875 4.75 -1.1875q3.703125 0 5.875 2.0625q2.1875 2.046875 2.1875 5.562499l-5.546875 0q0 -1.46875 -0.734375 -2.25q-0.71875 -0.79687405 -1.921875 -0.79687405q-2.3125 0 -2.6875 2.937499q-0.125 0.921875 -0.125 2.5625q0 2.859375 0.671875 3.96875q0.6875 1.109375 2.1875 1.109375zm9.921875 -5.46875q0 -2.84375 1.09375 -5.062499q1.109375 -2.234375 3.1875 -3.421875q2.078125 -1.203125 4.875 -1.203125q4.265625 0 6.71875 2.65625q2.46875 2.640624 2.46875 7.187499l0 0.21875q0 4.4375 -2.46875 7.0625q-2.46875 2.609375 -6.6875 2.609375q-4.0625 0 -6.53125 -2.4375q-2.453125 -2.4375 -2.640625 -6.609375l-0.015625 -1.0zm5.921875 0.375q0 2.625 0.8125 3.859375q0.828125 1.234375 2.453125 1.234375q3.15625 0 3.234375 -4.875l0 -0.59375q0 -5.109374 -3.265625 -5.109374q-2.96875 0 -3.21875 4.406249l-0.015625 1.078125zm21.933598 -14.437499l0 4.734375l3.125 0l0 4.109375l-3.125 0l0 8.703124q0 1.0625 0.375 1.484375q0.390625 0.421875 1.546875 0.421875q0.875 0 1.46875 -0.09375l0 4.234375q-1.59375 0.515625 -3.34375 0.515625q-3.046875 0 -4.515625 -1.4375q-1.453125 -1.453125 -1.453125 -4.390625l0 -9.437499l-2.421875 0l0 -4.109375l2.421875 0l0 -4.734375l5.921875 0zm12.357422 0l0 4.734375l3.125 0l0 4.109375l-3.125 0l0 8.703124q0 1.0625 0.375 1.484375q0.390625 0.421875 1.546875 0.421875q0.875 0 1.46875 -0.09375l0 4.234375q-1.59375 0.515625 -3.34375 0.515625q-3.046875 0 -4.515625 -1.4375q-1.453125 -1.453125 -1.453125 -4.390625l0 -9.437499l-2.421875 0l0 -4.109375l2.421875 0l0 -4.734375l5.921875 0zm22.791016 -1.84375l5.71875 17.8125l5.703125 -17.8125l8.109375 0l0 25.59375l-6.1875 0l0 -5.984375l0.609375 -12.234374l-6.1875 18.21875l-4.078125 0l-6.21875 -18.234375l0.609375 12.249999l0 5.984375l-6.171875 0l0 -25.59375l8.09375 0zm22.443352 15.906249q0 -2.84375 1.09375 -5.062499q1.109375 -2.234375 3.1875 -3.421875q2.078125 -1.203125 4.875 -1.203125q4.265625 0 6.71875 2.65625q2.46875 2.640624 2.46875 7.187499l0 0.21875q0 4.4375 -2.46875 7.0625q-2.46875 2.609375 -6.6875 2.609375q-4.0625 0 -6.53125 -2.4375q-2.453125 -2.4375 -2.640625 -6.609375l-0.015625 -1.0zm5.921875 0.375q0 2.625 0.8125 3.859375q0.828125 1.234375 2.453125 1.234375q3.15625 0 3.234375 -4.875l0 -0.59375q0 -5.109374 -3.265625 -5.109374q-2.96875 0 -3.21875 4.406249l-0.015625 1.078125zm26.542969 -4.34375l-1.953125 -0.140625q-2.796875 0 -3.59375 1.75l0 12.046875l-5.921875 0l0 -19.015625l5.5625 0l0.1875 2.4375q1.5 -2.796875 4.171875 -2.796875q0.9375 0 1.640625 0.21875l-0.09375 5.499999zm12.316406 13.65625q-0.3125 -0.578125 -0.5625 -1.703125q-1.640625 2.0625 -4.5625 2.0625q-2.703125 0 -4.578125 -1.625q-1.875 -1.640625 -1.875 -4.09375q0 -3.09375 2.28125 -4.671875q2.28125 -1.59375 6.640625 -1.59375l1.828125 0l0 -1.0q0 -2.609374 -2.265625 -2.609374q-2.109375 0 -2.109375 2.062499l-5.921875 0q0 -2.749999 2.34375 -4.468749q2.34375 -1.734375 5.984375 -1.734375q3.640625 0 5.75 1.78125q2.109375 1.765625 2.15625 4.859374l0 8.421875q0.046875 2.625 0.8125 4.015625l0 0.296875l-5.921875 0zm-3.703125 -3.875q1.109375 0 1.828125 -0.46875q0.734375 -0.46875 1.046875 -1.078125l0 -3.03125l-1.71875 0q-3.09375 0 -3.09375 2.78125q0 0.796875 0.546875 1.296875q0.546875 0.5 1.390625 0.5zm18.341797 3.875l-5.9375 0l0 -27.0l5.9375 0l0 27.0zm12.849609 0.359375q-4.375 0 -7.078125 -2.609375q-2.703125 -2.625 -2.703125 -6.796875l0 -0.5q0 -2.921875 1.078125 -5.140624q1.078125 -2.234375 3.15625 -3.453125q2.078125 -1.234375 4.921875 -1.234375q4.0 0 6.3125 2.5q2.328125 2.484375 2.328125 6.921874l0 2.3125l-11.765625 0q0.3125 1.59375 1.375 2.515625q1.078125 0.90625 2.78125 0.90625q2.8125 0 4.390625 -1.96875l2.71875 3.203125q-1.109375 1.53125 -3.140625 2.4375q-2.03125 0.90625 -4.375 0.90625zm-0.65625 -15.156249q-2.609375 0 -3.09375 3.437499l5.96875 0l0 -0.453125q0.03125 -1.421875 -0.71875 -2.203125q-0.75 -0.78124905 -2.15625 -0.78124905zm21.021484 9.453124q0 -0.75 -0.796875 -1.203125q-0.796875 -0.46875 -3.015625 -0.953125q-2.203125 -0.5 -3.65625 -1.296875q-1.4375 -0.796875 -2.1875 -1.9375q-0.75 -1.15625 -0.75 -2.625q0 -2.624999 2.15625 -4.312499q2.15625 -1.703125 5.65625 -1.703125q3.765625 0 6.046875 1.703125q2.296875 1.703125 2.296875 4.484374l-5.953125 0q0 -2.281249 -2.40625 -2.281249q-0.921875 0 -1.5625 0.515625q-0.625 0.515625 -0.625 1.296874q0 0.78125 0.765625 1.28125q0.78125 0.484375 2.46875 0.8125q1.703125 0.3125 2.984375 0.75q4.28125 1.484375 4.28125 5.296875q0 2.59375 -2.3125 4.234375q-2.3125 1.640625 -5.984375 1.640625q-2.4375 0 -4.359375 -0.875q-1.90625 -0.890625 -2.984375 -2.40625q-1.078125 -1.515625 -1.078125 -3.171875l5.546875 0q0.03125 1.3125 0.875 1.921875q0.84375 0.609375 2.15625 0.609375q1.21875 0 1.828125 -0.484375q0.609375 -0.5 0.609375 -1.296875z" fill-rule="nonzero"/></g></g></svg>