<?xml version="1.0" encoding="utf-8"?>
<!-- Generator: Adobe Illustrator 13.0.0, SVG Export Plug-In . SVG Version: 6.00 Build 14948)  -->
<!DOCTYPE svg PUBLIC "-//W3C//DTD SVG 1.1//EN" "http://www.w3.org/Graphics/SVG/1.1/DTD/svg11.dtd">
<svg version="1.1" id="Layer_1" xmlns="http://www.w3.org/2000/svg" xmlns:xlink="http://www.w3.org/1999/xlink" x="0px" y="0px"
	 width="400px" height="60px" viewBox="0 0 400 60" enable-background="new 0 0 400 60" xml:space="preserve">
<g>
	<path fill="#1B1464" d="M26.244,6.682V17.33c-3.966-3.25-7.125-4.876-9.479-4.876c-1.341,0-2.407,0.411-3.198,1.228
		c-0.791,0.82-1.187,1.906-1.187,3.258c0,1.042,0.284,2.027,0.855,2.964c0.569,0.937,1.96,2.147,4.171,3.627
		c2.211,1.484,3.979,2.86,5.307,4.134c1.326,1.277,2.472,3.069,3.435,5.385c0.963,2.313,1.443,5.238,1.443,8.777
		c0,5.045-1.053,9.064-3.156,12.057c-2.103,2.99-4.874,4.484-8.311,4.484c-3.709,0-7.304-1.756-10.785-5.266v-11.74
		c1.998,2.443,3.767,4.223,5.307,5.34c1.541,1.119,3.174,1.678,4.899,1.678c2.925,0,4.387-1.678,4.387-5.027
		c0-1.146-0.292-2.223-0.879-3.236c-0.584-1.012-1.992-2.252-4.225-3.705c-2.233-1.455-4.002-2.805-5.307-4.057
		c-1.305-1.248-2.431-3.028-3.379-5.343c-0.948-2.316-1.423-5.281-1.423-8.897c0-4.684,1.034-8.459,3.103-11.336
		c2.067-2.875,4.835-4.312,8.302-4.312C19.318,2.466,22.692,3.872,26.244,6.682z"/>
	<path fill="#1B1464" d="M60.284,41.048v11.898c-3.738,3.613-7.652,5.422-11.747,5.422c-5.305,0-9.53-2.676-12.677-8.018
		c-3.145-5.346-4.717-11.934-4.717-19.758c0-7.827,1.657-14.474,4.974-19.934c3.316-5.461,7.65-8.192,12.998-8.192
		c4.264,0,7.873,1.6,10.826,4.797v12.135c-3.623-3.721-7.054-5.58-10.291-5.58c-3.182,0-5.781,1.553-7.799,4.663
		c-2.019,3.107-3.026,7.066-3.026,11.877c0,4.836,0.993,8.828,2.983,11.975c1.99,3.148,4.539,4.719,7.649,4.719
		c1.54,0,3.024-0.367,4.449-1.111C55.334,45.202,57.459,43.567,60.284,41.048z"/>
	<path fill="#1B1464" d="M82.063,2.466c5.093,0,9.214,2.805,12.367,8.408c3.151,5.603,4.728,12.125,4.728,19.561
		c0,7.541-1.598,14.086-4.792,19.625c-3.195,5.539-7.296,8.309-12.303,8.309c-5.063,0-9.186-2.758-12.366-8.273
		c-3.182-5.51-4.771-12.066-4.771-19.66c0-7.461,1.58-13.99,4.738-19.581C72.824,5.262,76.957,2.466,82.063,2.466z M82.063,47.052
		c2.825,0,5.101-1.523,6.825-4.578c1.727-3.061,2.589-7.07,2.589-12.039c0-4.992-0.862-9.009-2.589-12.052
		c-1.725-3.043-4-4.564-6.825-4.564c-2.837,0-5.124,1.521-6.856,4.564c-1.734,3.043-2.6,7.061-2.6,12.052
		c0,4.969,0.865,8.979,2.6,12.039C76.939,45.528,79.227,47.052,82.063,47.052z"/>
	<path fill="#1B1464" d="M128.683,3.17v9.984h-10.824v44.511h-7.446V13.154H99.587V3.17H128.683z"/>
	<path fill="#1B1464" d="M160.197,3.17v9.984h-10.824v44.511h-7.447V13.154h-10.825V3.17H160.197z"/>
	<path fill="#1B1464" d="M192.986,23.377l9.606-20.207h6.473v54.495h-7.447V23.647l-8.075,17.086h-1.118l-8.073-17.086v34.018
		h-7.443V3.17h6.463L192.986,23.377z"/>
	<path fill="#1B1464" d="M231.529,2.466c5.092,0,9.214,2.805,12.365,8.408c3.152,5.603,4.729,12.125,4.729,19.561
		c0,7.541-1.601,14.086-4.794,19.625c-3.195,5.539-7.297,8.309-12.301,8.309c-5.064,0-9.187-2.758-12.366-8.273
		c-3.18-5.51-4.773-12.066-4.773-19.66c0-7.461,1.582-13.99,4.741-19.581C222.291,5.262,226.421,2.466,231.529,2.466z
		 M231.529,47.052c2.821,0,5.097-1.523,6.825-4.578c1.725-3.061,2.589-7.07,2.589-12.039c0-4.992-0.864-9.009-2.589-12.052
		c-1.729-3.043-4.004-4.564-6.825-4.564c-2.84,0-5.125,1.521-6.86,4.564c-1.729,3.043-2.597,7.061-2.597,12.052
		c0,4.969,0.867,8.979,2.597,12.039C226.404,45.528,228.689,47.052,231.529,47.052z"/>
	<path fill="#1B1464" d="M254.014,3.17h13.351c2.898,0,5.248,1.524,7.061,4.579c1.813,3.055,2.717,6.752,2.717,11.09
		c0,6.004-1.71,10.45-5.135,13.332c1.502,1.248,2.928,4.602,4.276,10.059c1.356,5.457,2.659,10.6,3.917,15.436h-8.17
		c-0.488-1.793-1.338-5.213-2.548-10.258c-1.21-5.043-2.248-8.287-3.113-9.717c-0.86-1.426-1.786-2.141-2.77-2.141h-2.141v22.115
		h-7.445V3.17z M261.459,13.154v12.405h3.938c1.254,0,2.249-0.538,2.984-1.617c0.734-1.08,1.101-2.622,1.101-4.623
		c0-4.108-1.42-6.165-4.259-6.165H261.459z"/>
	<path fill="#1B1464" d="M301.157,3.17l13.276,54.495h-8.005l-2.462-10.764h-13.388l-2.228,10.764h-7.893L292.531,3.17H301.157z
		 M301.788,37.382l-4.844-21.184l-4.393,21.184H301.788z"/>
	<path fill="#1B1464" d="M340.664,47.681v9.984h-22.786V3.17h7.446v44.51H340.664z"/>
	<path fill="#1B1464" d="M366.959,47.681v9.984h-22.036V3.17h21.737v9.984h-14.291v11.43h13.627v9.987h-13.627v13.109H366.959z"/>
	<path fill="#1B1464" d="M392.933,6.682V17.33c-3.966-3.25-7.126-4.876-9.479-4.876c-1.341,0-2.405,0.411-3.196,1.228
		c-0.791,0.82-1.189,1.906-1.189,3.258c0,1.042,0.287,2.027,0.858,2.964c0.57,0.937,1.961,2.147,4.171,3.627
		c2.211,1.484,3.98,2.86,5.307,4.134c1.326,1.277,2.47,3.069,3.433,5.385c0.96,2.313,1.443,5.238,1.443,8.777
		c0,5.045-1.05,9.064-3.154,12.057c-2.106,2.99-4.875,4.484-8.313,4.484c-3.707,0-7.302-1.756-10.782-5.266v-11.74
		c1.996,2.443,3.765,4.223,5.307,5.34c1.541,1.119,3.171,1.678,4.899,1.678c2.923,0,4.387-1.678,4.387-5.027
		c0-1.146-0.294-2.223-0.878-3.236c-0.589-1.012-1.997-2.252-4.228-3.705c-2.231-1.455-4.001-2.805-5.307-4.057
		c-1.307-1.248-2.429-3.028-3.377-5.343c-0.951-2.316-1.426-5.281-1.426-8.897c0-4.684,1.035-8.459,3.104-11.336
		c2.068-2.875,4.835-4.312,8.3-4.312C386.005,2.466,389.38,3.872,392.933,6.682z"/>
</g>
</svg>
